<svg xmlns="http://www.w3.org/2000/svg" xmlns:xlink="http://www.w3.org/1999/xlink" width="793" zoomAndPan="magnify" viewBox="0 0 595.5 842.249979" height="1122" preserveAspectRatio="xMidYMid meet" version="1.0"><defs><clipPath id="f272cafaa6"><path d="M 19.46875 111.3125 L 575.476562 111.3125 L 575.476562 796.949219 L 19.46875 796.949219 Z M 19.46875 111.3125 " clip-rule="nonzero"/></clipPath><clipPath id="73525ed858"><path d="M 171 605 L 424 605 L 424 841.5 L 171 841.5 Z M 171 605 " clip-rule="nonzero"/></clipPath><clipPath id="17a855aede"><path d="M 171.222656 731.316406 L 297.386719 605.148438 L 423.554688 731.316406 L 297.386719 857.480469 Z M 171.222656 731.316406 " clip-rule="nonzero"/></clipPath><clipPath id="8fe130fcc4"><path d="M 171.222656 731.316406 L 297.386719 605.148438 L 423.554688 731.316406 L 297.386719 857.480469 Z M 171.222656 731.316406 " clip-rule="nonzero"/></clipPath></defs><g clip-path="url(#f272cafaa6)"><path fill="#ffffff" d="M 297.402344 546.269531 L 373.402344 630.902344 L 429.542969 693.433594 L 456.207031 663.726562 L 456.207031 538.679688 L 429.542969 568.367188 L 353.542969 483.738281 L 495.921875 325.203125 L 495.921875 619.5 L 575.332031 531.074219 L 575.332031 111.726562 L 297.402344 421.203125 L 19.46875 111.726562 L 19.46875 531.074219 L 98.882812 619.5 L 98.882812 325.203125 L 241.257812 483.738281 L 165.257812 568.367188 L 138.59375 538.679688 L 138.59375 663.726562 L 165.257812 693.433594 L 221.402344 630.902344 Z M 138.578125 432.109375 L 138.578125 485.59375 L 163.238281 508.332031 L 189.019531 482.550781 C 189.019531 482.550781 138.578125 433.148438 138.578125 432.109375 Z M 297.402344 796.351562 L 257.703125 796.351562 L 193.328125 724.675781 L 297.402344 612.324219 L 401.472656 724.675781 L 337.097656 796.351562 Z M 456.222656 432.109375 L 456.222656 485.59375 L 431.5625 508.332031 L 405.78125 482.550781 C 405.78125 482.550781 456.222656 433.148438 456.222656 432.109375 Z M 456.222656 432.109375 " fill-opacity="1" fill-rule="evenodd"/></g><g clip-path="url(#73525ed858)"><g clip-path="url(#17a855aede)"><g clip-path="url(#8fe130fcc4)"><path fill="#1a0b2e" d="M 171.222656 731.316406 L 297.386719 605.148438 L 423.554688 731.316406 L 297.386719 857.480469 Z M 171.222656 731.316406 " fill-opacity="1" fill-rule="nonzero"/></g></g></g></svg>