<svg xmlns="http://www.w3.org/2000/svg" xmlns:xlink="http://www.w3.org/1999/xlink" width="793" zoomAndPan="magnify" viewBox="0 0 595.5 842.249979" height="1122" preserveAspectRatio="xMidYMid meet" version="1.0"><defs><clipPath id="b031533360"><path d="M 19.46875 59.472656 L 575.476562 59.472656 L 575.476562 745 L 19.46875 745 Z M 19.46875 59.472656 " clip-rule="nonzero"/></clipPath></defs><g clip-path="url(#b031533360)"><path fill="#ffffff" d="M 297.402344 494.433594 L 373.402344 579.0625 L 429.542969 641.597656 L 456.207031 611.890625 L 456.207031 486.84375 L 429.542969 516.53125 L 353.542969 431.898438 L 495.921875 273.367188 L 495.921875 567.664062 L 575.332031 479.234375 L 575.332031 59.890625 L 297.402344 369.367188 L 19.46875 59.890625 L 19.46875 479.234375 L 98.882812 567.664062 L 98.882812 273.367188 L 241.257812 431.898438 L 165.257812 516.53125 L 138.59375 486.84375 L 138.59375 611.890625 L 165.257812 641.597656 L 221.402344 579.0625 Z M 138.578125 380.273438 L 138.578125 433.757812 L 163.238281 456.496094 L 189.019531 430.714844 C 189.019531 430.714844 138.578125 381.3125 138.578125 380.273438 Z M 297.402344 744.515625 L 257.703125 744.515625 L 193.328125 672.839844 L 297.402344 560.488281 L 401.472656 672.839844 L 337.097656 744.515625 Z M 456.222656 380.273438 L 456.222656 433.757812 L 431.5625 456.496094 L 405.78125 430.714844 C 405.78125 430.714844 456.222656 381.3125 456.222656 380.273438 Z M 456.222656 380.273438 " fill-opacity="1" fill-rule="evenodd"/></g></svg>